<svg xmlns="http://www.w3.org/2000/svg" viewBox="0 0 600 300" role="img" aria-labelledby="title"><title id="title">Football — pictogramme sportif</title><rect width="600" height="300" fill="#f3f5f2"/><g color="#252d70" transform="translate(170.4 27) scale(1.08)"><circle cx="113" cy="42" r="11" fill="currentColor"/><path d="M105 72 119 118" fill="none" stroke="currentColor" stroke-width="22" stroke-linecap="round" stroke-linejoin="round"/><path d="M107 75 73 91 47 73 M113 78 143 66 159 39 M120 116 91 155 80 190 M122 119 160 115 199 85" fill="none" stroke="currentColor" stroke-width="13" stroke-linecap="round" stroke-linejoin="round"/><circle cx="193" cy="168" r="21" fill="none" stroke="currentColor" stroke-width="6"/><path d="m193 155 12 9-5 14h-14l-5-14Z" fill="currentColor"/><path d="M193 155v-7 M205 164l8-2 M200 178l5 8 M186 178l-5 8 M181 164l-8-2" fill="none" stroke="currentColor" stroke-width="3" stroke-linecap="round" stroke-linejoin="round"/></g></svg>
